<svg width="435" height="37" viewBox="0 0 435 37" fill="none" xmlns="http://www.w3.org/2000/svg">
<path d="M20.0654 37H1.42641C0.628414 37 0.229414 36.601 0.229414 35.803V1.546C0.229414 0.747999 0.628414 0.349 1.42641 0.349H20.0654C20.8254 0.349 21.2054 0.747999 21.2054 1.546V5.422C21.2054 6.22 20.8254 6.619 20.0654 6.619H8.15241C7.69641 6.619 7.46841 6.828 7.46841 7.246V14.656C7.46841 15.074 7.69641 15.283 8.15241 15.283H17.8994C18.6974 15.283 19.0964 15.682 19.0964 16.48V20.356C19.0964 21.154 18.6974 21.553 17.8994 21.553H8.15241C7.69641 21.553 7.46841 21.762 7.46841 22.18V30.103C7.46841 30.521 7.69641 30.73 8.15241 30.73H20.0654C20.8254 30.73 21.2054 31.129 21.2054 31.927V35.803C21.2054 36.601 20.8254 37 20.0654 37ZM33.5468 37H28.7018C27.9038 37 27.5048 36.601 27.5048 35.803V1.546C27.5048 0.747999 27.9038 0.349 28.7018 0.349H42.2678C45.2318 0.349 47.5498 1.166 49.2218 2.8C50.8938 4.434 51.7298 6.733 51.7298 9.697V14.143C51.7298 18.437 50.0388 21.287 46.6568 22.693V22.921L52.7558 35.632C53.0978 36.544 52.7748 37 51.7868 37H47.1698C46.4858 37 45.9918 36.924 45.6878 36.772C45.3838 36.62 45.1368 36.297 44.9468 35.803L39.2468 23.491H35.4278C34.9718 23.491 34.7438 23.7 34.7438 24.118V35.803C34.7438 36.601 34.3448 37 33.5468 37ZM35.3708 17.677H40.9568C42.1728 17.677 43.0658 17.43 43.6358 16.936C44.2058 16.404 44.4908 15.568 44.4908 14.428V9.982C44.4908 8.804 44.2058 7.949 43.6358 7.417C43.0658 6.885 42.1728 6.619 40.9568 6.619H35.3708C34.9528 6.619 34.7438 6.828 34.7438 7.246V17.05C34.7438 17.468 34.9528 17.677 35.3708 17.677ZM73.5537 37H67.5117C64.5097 37 62.1917 36.202 60.5577 34.606C58.9237 33.01 58.1067 30.711 58.1067 27.709V9.64C58.1067 6.638 58.9237 4.339 60.5577 2.743C62.1917 1.147 64.5097 0.349 67.5117 0.349H73.5537C76.5177 0.349 78.8167 1.166 80.4507 2.8C82.0847 4.396 82.9017 6.676 82.9017 9.64V11.35C82.9017 12.186 82.5027 12.604 81.7047 12.604H76.8597C76.0617 12.604 75.6627 12.186 75.6627 11.35V9.982C75.6627 8.766 75.4157 7.911 74.9217 7.417C74.4277 6.885 73.5727 6.619 72.3567 6.619H68.6517C67.4737 6.619 66.6187 6.885 66.0867 7.417C65.5927 7.911 65.3457 8.766 65.3457 9.982V27.367C65.3457 28.583 65.5927 29.457 66.0867 29.989C66.6187 30.483 67.4737 30.73 68.6517 30.73H72.3567C73.5727 30.73 74.4277 30.483 74.9217 29.989C75.4157 29.457 75.6627 28.583 75.6627 27.367V23.776C75.6627 23.358 75.4537 23.149 75.0357 23.149H71.6157C70.8177 23.149 70.4187 22.75 70.4187 21.952V18.076C70.4187 17.278 70.8177 16.879 71.6157 16.879H81.5907C82.4647 16.879 82.9017 17.316 82.9017 18.19V27.709C82.9017 30.673 82.0847 32.972 80.4507 34.606C78.8167 36.202 76.5177 37 73.5537 37ZM99.7122 30.73H103.759C104.975 30.73 105.83 30.483 106.324 29.989C106.856 29.457 107.122 28.583 107.122 27.367V9.982C107.122 8.766 106.856 7.911 106.324 7.417C105.83 6.885 104.975 6.619 103.759 6.619H99.7122C98.4962 6.619 97.6412 6.885 97.1472 7.417C96.6532 7.911 96.4062 8.766 96.4062 9.982V27.367C96.4062 28.583 96.6532 29.457 97.1472 29.989C97.6412 30.483 98.4962 30.73 99.7122 30.73ZM104.956 37H98.5722C95.5702 37 93.2522 36.202 91.6182 34.606C89.9842 33.01 89.1672 30.711 89.1672 27.709V9.64C89.1672 6.638 89.9842 4.339 91.6182 2.743C93.2522 1.147 95.5702 0.349 98.5722 0.349H104.956C107.958 0.349 110.276 1.147 111.91 2.743C113.544 4.339 114.361 6.638 114.361 9.64V27.709C114.361 30.711 113.544 33.01 111.91 34.606C110.276 36.202 107.958 37 104.956 37ZM127.115 37H122.384C121.586 37 121.187 36.601 121.187 35.803V1.546C121.187 0.747999 121.586 0.349 122.384 0.349H126.659C127.457 0.349 127.989 0.615 128.255 1.147L139.769 22.75H139.997V1.546C139.997 0.747999 140.396 0.349 141.194 0.349H145.925C146.723 0.349 147.122 0.747999 147.122 1.546V35.803C147.122 36.601 146.723 37 145.925 37H141.764C140.928 37 140.32 36.62 139.94 35.86L128.54 14.656H128.312V35.803C128.312 36.601 127.913 37 127.115 37ZM164.505 30.73H168.552C169.768 30.73 170.623 30.483 171.117 29.989C171.649 29.457 171.915 28.583 171.915 27.367V9.982C171.915 8.766 171.649 7.911 171.117 7.417C170.623 6.885 169.768 6.619 168.552 6.619H164.505C163.289 6.619 162.434 6.885 161.94 7.417C161.446 7.911 161.199 8.766 161.199 9.982V27.367C161.199 28.583 161.446 29.457 161.94 29.989C162.434 30.483 163.289 30.73 164.505 30.73ZM169.749 37H163.365C160.363 37 158.045 36.202 156.411 34.606C154.777 33.01 153.96 30.711 153.96 27.709V9.64C153.96 6.638 154.777 4.339 156.411 2.743C158.045 1.147 160.363 0.349 163.365 0.349H169.749C172.751 0.349 175.069 1.147 176.703 2.743C178.337 4.339 179.154 6.638 179.154 9.64V27.709C179.154 30.711 178.337 33.01 176.703 34.606C175.069 36.202 172.751 37 169.749 37ZM210.319 0.349H218.755C219.553 0.349 219.952 0.747999 219.952 1.546V35.803C219.952 36.601 219.553 37 218.755 37H214.081C213.283 37 212.884 36.601 212.884 35.803V8.785H212.656L206.842 27.88C206.614 28.64 206.139 29.02 205.417 29.02H200.629C199.907 29.02 199.432 28.64 199.204 27.88L193.276 8.728H193.048V35.803C193.048 36.259 192.972 36.582 192.82 36.772C192.668 36.924 192.345 37 191.851 37H187.177C186.379 37 185.98 36.601 185.98 35.803V1.546C185.98 0.747999 186.379 0.349 187.177 0.349H195.67C196.202 0.349 196.563 0.615 196.753 1.147L202.795 21.268H203.137L209.236 1.147C209.35 0.615 209.711 0.349 210.319 0.349ZM234.863 1.546V35.803C234.863 36.601 234.464 37 233.666 37H228.821C228.023 37 227.624 36.601 227.624 35.803V1.546C227.624 0.747999 228.023 0.349 228.821 0.349H233.666C234.464 0.349 234.863 0.747999 234.863 1.546ZM246.354 37H240.882C240.198 37 239.97 36.601 240.198 35.803L249.204 1.546C249.47 0.747999 250.04 0.349 250.914 0.349H258.495C259.445 0.349 260.015 0.747999 260.205 1.546L269.211 35.803C269.439 36.601 269.211 37 268.527 37H263.055C262.637 37 262.352 36.924 262.2 36.772C262.048 36.582 261.934 36.259 261.858 35.803L260.262 29.533H249.147L247.551 35.803C247.475 36.259 247.342 36.582 247.152 36.772C247 36.924 246.734 37 246.354 37ZM254.619 7.246L250.515 23.719H258.951L254.847 7.246H254.619Z" fill="#003D69"/>
<path d="M280.021 28.792V35.803C280.021 36.601 279.66 37 278.938 37H273.865C273.105 37 272.725 36.601 272.725 35.803V28.849C272.725 28.089 273.105 27.709 273.865 27.709H278.938C279.66 27.709 280.021 28.07 280.021 28.792Z" fill="#666666"/>
<path d="M300.945 37H294.732C291.73 37 289.412 36.202 287.778 34.606C286.144 33.01 285.327 30.711 285.327 27.709V9.64C285.327 6.638 286.144 4.339 287.778 2.743C289.412 1.147 291.73 0.349 294.732 0.349H300.945C303.909 0.349 306.208 1.166 307.842 2.8C309.514 4.396 310.35 6.676 310.35 9.64V12.319C310.35 13.155 309.932 13.573 309.096 13.573H304.308C303.51 13.573 303.111 13.155 303.111 12.319V9.982C303.111 8.766 302.845 7.911 302.313 7.417C301.819 6.885 300.964 6.619 299.748 6.619H295.872C294.694 6.619 293.839 6.885 293.307 7.417C292.813 7.911 292.566 8.766 292.566 9.982V27.367C292.566 28.583 292.813 29.457 293.307 29.989C293.839 30.483 294.694 30.73 295.872 30.73H299.748C300.964 30.73 301.819 30.483 302.313 29.989C302.845 29.457 303.111 28.583 303.111 27.367V25.03C303.111 24.194 303.51 23.776 304.308 23.776H309.096C309.932 23.776 310.35 24.194 310.35 25.03V27.709C310.35 30.673 309.514 32.972 307.842 34.606C306.208 36.202 303.909 37 300.945 37ZM322.61 37H317.765C316.967 37 316.568 36.601 316.568 35.803V1.546C316.568 0.747999 316.967 0.349 317.765 0.349H322.61C323.408 0.349 323.807 0.747999 323.807 1.546V14.941C323.807 15.359 324.035 15.568 324.491 15.568H334.124C334.542 15.568 334.751 15.359 334.751 14.941V1.546C334.751 0.747999 335.15 0.349 335.948 0.349H340.793C341.591 0.349 341.99 0.747999 341.99 1.546V35.803C341.99 36.601 341.591 37 340.793 37H335.948C335.15 37 334.751 36.601 334.751 35.803V22.465C334.751 22.047 334.542 21.838 334.124 21.838H324.491C324.035 21.838 323.807 22.047 323.807 22.465V35.803C323.807 36.601 323.408 37 322.61 37ZM369.246 37H350.607C349.809 37 349.41 36.601 349.41 35.803V1.546C349.41 0.747999 349.809 0.349 350.607 0.349H369.246C370.006 0.349 370.386 0.747999 370.386 1.546V5.422C370.386 6.22 370.006 6.619 369.246 6.619H357.333C356.877 6.619 356.649 6.828 356.649 7.246V14.656C356.649 15.074 356.877 15.283 357.333 15.283H367.08C367.878 15.283 368.277 15.682 368.277 16.48V20.356C368.277 21.154 367.878 21.553 367.08 21.553H357.333C356.877 21.553 356.649 21.762 356.649 22.18V30.103C356.649 30.521 356.877 30.73 357.333 30.73H369.246C370.006 30.73 370.386 31.129 370.386 31.927V35.803C370.386 36.601 370.006 37 369.246 37ZM391.733 37H385.52C382.518 37 380.2 36.202 378.566 34.606C376.932 33.01 376.115 30.711 376.115 27.709V9.64C376.115 6.638 376.932 4.339 378.566 2.743C380.2 1.147 382.518 0.349 385.52 0.349H391.733C394.697 0.349 396.996 1.166 398.63 2.8C400.302 4.396 401.138 6.676 401.138 9.64V12.319C401.138 13.155 400.72 13.573 399.884 13.573H395.096C394.298 13.573 393.899 13.155 393.899 12.319V9.982C393.899 8.766 393.633 7.911 393.101 7.417C392.607 6.885 391.752 6.619 390.536 6.619H386.66C385.482 6.619 384.627 6.885 384.095 7.417C383.601 7.911 383.354 8.766 383.354 9.982V27.367C383.354 28.583 383.601 29.457 384.095 29.989C384.627 30.483 385.482 30.73 386.66 30.73H390.536C391.752 30.73 392.607 30.483 393.101 29.989C393.633 29.457 393.899 28.583 393.899 27.367V25.03C393.899 24.194 394.298 23.776 395.096 23.776H399.884C400.72 23.776 401.138 24.194 401.138 25.03V27.709C401.138 30.673 400.302 32.972 398.63 34.606C396.996 36.202 394.697 37 391.733 37ZM413.398 37H408.553C407.755 37 407.356 36.601 407.356 35.803V1.546C407.356 0.747999 407.755 0.349 408.553 0.349H413.398C414.196 0.349 414.595 0.747999 414.595 1.546V17.791H414.709C415.013 16.879 415.602 15.701 416.476 14.257L425.14 1.546C425.634 0.747999 426.375 0.349 427.363 0.349H432.949C433.367 0.349 433.614 0.481999 433.69 0.747998C433.804 0.975997 433.709 1.28 433.405 1.66L422.575 16.651L434.659 35.575C434.925 36.031 434.963 36.392 434.773 36.658C434.621 36.886 434.279 37 433.747 37H429.586C428.256 37 427.363 36.601 426.907 35.803L418.186 21.838L414.595 26.056V35.803C414.595 36.601 414.196 37 413.398 37Z" fill="#DB7700"/>
</svg>
